<svg xmlns="http://www.w3.org/2000/svg" xmlns:xlink="http://www.w3.org/1999/xlink" width="24" height="24" viewBox="0 0 24 24">
    <defs>
        <path id="a" d="M10 0c.69 0 1.25.56 1.25 1.25v2.5a1.25 1.25 0 0 1-2.5 0v-2.5C8.75.56 9.31 0 10 0zm0 15c.69 0 1.25.56 1.25 1.25v2.5a1.25 1.25 0 0 1-2.5 0v-2.5c0-.69.56-1.25 1.25-1.25zm10-5c0 .69-.56 1.25-1.25 1.25h-2.5a1.25 1.25 0 0 1 0-2.5h2.5c.69 0 1.25.56 1.25 1.25zM5 10c0 .69-.56 1.25-1.25 1.25h-2.5a1.25 1.25 0 0 1 0-2.5h2.5C4.44 8.75 5 9.31 5 10zm12.071-7.071a1.25 1.25 0 0 1 0 1.768l-1.768 1.767a1.25 1.25 0 0 1-1.767-1.767l1.767-1.768a1.25 1.25 0 0 1 1.768 0zM6.464 13.536a1.25 1.25 0 0 1 0 1.767l-1.767 1.768a1.25 1.25 0 1 1-1.768-1.768l1.768-1.767a1.25 1.25 0 0 1 1.767 0zm10.607 3.535a1.25 1.25 0 0 1-1.768 0l-1.767-1.768a1.25 1.25 0 1 1 1.767-1.767l1.768 1.767a1.25 1.25 0 0 1 0 1.768zM6.464 6.464a1.25 1.25 0 0 1-1.767 0L2.929 4.697a1.25 1.25 0 1 1 1.768-1.768l1.767 1.768a1.25 1.25 0 0 1 0 1.767z"/>
    </defs>
    <g fill="none" fill-rule="evenodd">
        <path d="M0 0h24v24H0z"/>
        <use fill="#FFF" transform="translate(2 2)" xlink:href="#a"/>
    </g>
</svg>
